<svg width="3206" height="3206" viewBox="0 0 3206 3206" fill="none" xmlns="http://www.w3.org/2000/svg">
<path d="M1602.87 0C2487 0 3205.73 718.739 3205.73 1602.87C3205.73 2487 2486.56 3205.73 1602.87 3205.73C719.179 3205.73 0 2486.56 0 1602.87C0 719.179 719.179 0 1602.87 0ZM2061.65 2588.16C2007.54 2613.24 1951.24 2633.03 1893.18 2646.67C1813.12 2713.97 1688.64 2784.78 1493.78 2842.41C1418.12 2864.84 1368.42 2910.59 1374.14 2953.69C1380.3 3004.28 1462.99 3057.5 1633.66 3063.66C1816.2 3059.7 1996.11 3020.99 2164.13 2949.29C2126.75 2893.87 2099.47 2827.89 2084.08 2755.75C2071.76 2700.77 2064.29 2644.47 2062.09 2588.16H2061.65ZM2249.03 2460.16C2219.12 2490.51 2186.13 2517.35 2150.94 2541.1C2148.74 2618.52 2161.06 2693.29 2171.61 2741.68C2186.13 2808.54 2212.52 2867.92 2248.15 2915.86C2285.54 2897.39 2321.61 2877.16 2357.24 2855.6C2290.38 2762.35 2248.59 2631.27 2248.15 2504.59C2248.15 2489.63 2248.15 2474.68 2249.47 2460.16H2249.03ZM2818.65 1155.96C2761.47 1155.52 2706.05 1173.56 2659.86 1206.99C2769.39 1261.53 2832.73 1304.2 2838.45 1308.16C2839.33 1308.6 2840.21 1309.48 2840.65 1309.92C2841.09 1309.92 2841.53 1310.8 2841.97 1310.8C2843.73 1312.12 2845.05 1313.44 2846.81 1315.2C2846.81 1315.2 2849.44 1318.71 2850.32 1320.03C2850.32 1320.47 2851.2 1320.91 2851.2 1321.35C2852.08 1322.67 2852.96 1323.99 2853.4 1325.75C2853.4 1326.19 2853.84 1326.63 2854.28 1327.07C2855.16 1328.83 2856.04 1331.03 2856.48 1332.79C2856.48 1333.23 2856.92 1334.11 2856.92 1334.55C2856.92 1335.87 2857.36 1337.19 2857.8 1338.95C2857.8 1339.39 2857.8 1339.83 2857.8 1340.27C2887.27 1587.03 2840.21 1767.82 2838.45 1775.73C2837.13 1781.01 2834.49 1785.85 2831.41 1790.69C2673.5 2016.34 2527.46 2165.45 2405.62 2263.98C2368.67 2337.44 2348.88 2424.09 2349.32 2512.51C2349.76 2620.27 2386.71 2735.08 2443.45 2812.5C2519.11 2760.15 2589.48 2700.77 2654.14 2635.67C2650.63 2630.83 2646.67 2625.55 2642.71 2619.83C2565.29 2511.63 2552.1 2405.62 2605.76 2320.73C2619.39 2300.05 2633.91 2280.7 2649.75 2261.78L2662.5 2245.95C2708.69 2187.01 2751.79 2124.99 2791.38 2061.21C2842.85 1978.51 2903.55 1937.16 2970.85 1937.16C2995.48 1937.16 3020.11 1942.88 3042.54 1953.44C3072.46 1836 3087.41 1715.47 3087.41 1594.51C3087.41 1516.21 3080.81 1437.48 3068.06 1360.06C3041.23 1263.29 2961.61 1155.96 2817.33 1155.96H2818.65ZM877.53 2395.06C819.908 2438.17 757.887 2478.2 696.746 2506.35C620.209 2541.1 575.343 2594.32 584.58 2639.19C594.257 2684.06 664.636 2729.36 800.994 2729.36C887.647 2729.36 1030.6 2710.89 1238.66 2629.51C1078.55 2582.89 957.146 2503.71 877.09 2395.06H877.53ZM2134.66 2101.23C2115.31 2343.6 1885.7 2493.15 1526.33 2493.15C1510.06 2493.15 1493.78 2493.15 1477.51 2492.27C1170.92 2479.96 969.902 2380.99 886.328 2202.4C955.826 2440.81 1179.28 2570.13 1553.6 2586.84C1573.84 2587.72 1594.07 2588.16 1614.3 2588.16C1902.42 2588.16 2208.56 2490.51 2294.33 2228.79C2229.67 2227.48 2170.29 2177.33 2135.1 2101.23H2134.66ZM2962.93 2018.1C2929.94 2018.1 2896.51 2045.37 2863.52 2098.59C2822.17 2165.89 2777.31 2230.55 2728.92 2293.02L2715.29 2310.17C2701.65 2326.01 2689.33 2342.72 2677.9 2360.31C2636.99 2425.41 2673.94 2503.27 2711.77 2556.49C2844.61 2403.86 2945.33 2225.28 3007.8 2032.18C2991.52 2022.94 2976.57 2018.1 2962.49 2018.1H2962.93ZM1335.87 1515.33C1221.06 1532.05 1123.41 1580.43 1050.4 1658.29C961.544 1752.42 916.678 1883.06 926.355 2016.78C942.63 2253.43 1126.05 2380.55 1472.67 2394.62C1486.74 2395.06 1501.26 2395.5 1515.33 2395.5C1265.93 2340.08 1132.21 2204.6 1117.7 1991.71C1106.7 1838.63 1158.16 1689.08 1259.77 1581.31C1283.09 1556.68 1308.6 1534.69 1335.87 1515.33ZM2262.22 1798.17C2262.22 1798.17 2259.59 1798.17 2258.27 1798.17C2218.68 1803.01 2182.17 1880.86 2193.17 1978.51C2204.16 2076.6 2256.51 2143.9 2296.97 2139.06C2299.17 2139.06 2301.37 2138.18 2303.57 2137.74H2305.33C2305.33 2137.74 2309.29 2135.54 2311.05 2134.22H2311.49C2311.49 2134.22 2315.45 2131.14 2317.65 2129.83C2318.09 2129.39 2318.97 2128.95 2319.41 2128.07C2320.73 2126.75 2322.49 2125.43 2324.25 2123.67L2325.57 2122.35C2325.57 2122.35 2329.08 2118.39 2330.84 2115.75C2331.72 2114.87 2332.16 2113.99 2333.04 2112.67C2334.36 2110.91 2335.24 2109.15 2336.56 2107.83C2337 2106.95 2337.88 2105.63 2338.76 2104.75C2340.08 2102.11 2341.4 2099.47 2342.72 2096.84C2343.6 2095.52 2344.04 2093.76 2344.92 2092C2345.8 2090.24 2346.24 2088.92 2347.12 2087.16C2348 2085.4 2348.44 2083.64 2349.32 2081.88C2350.64 2079.24 2351.52 2076.16 2352.4 2073.08C2353.28 2070.88 2353.72 2068.68 2354.16 2066.48C2354.6 2064.73 2355.04 2063.41 2355.48 2061.65C2355.92 2059.45 2356.8 2057.25 2357.24 2054.61C2358.12 2051.53 2358.56 2048.89 2358.99 2045.81C2364.27 2017.22 2365.15 1987.75 2361.63 1958.72C2356.36 1913.85 2342.72 1876.02 2325.13 1847.87C2321.17 1841.27 2317.21 1835.56 2312.37 1829.84L2311.05 1828.08C2308.85 1825.44 2306.65 1823.24 2304.45 1821.04C2303.57 1820.16 2303.13 1819.72 2301.81 1818.4C2300.49 1817.52 2299.61 1816.2 2298.29 1815.32C2296.53 1813.56 2294.77 1812.24 2293.02 1810.92C2292.14 1810.04 2291.26 1809.6 2290.38 1809.16C2288.62 1807.84 2286.86 1806.96 2285.1 1805.65C2284.66 1805.65 2283.78 1804.77 2283.34 1804.77C2281.58 1803.89 2279.38 1803.01 2277.62 1802.13L2275.86 1801.25C2275.86 1801.25 2271.9 1799.93 2269.7 1799.49H2268.38C2268.38 1799.49 2263.98 1798.61 2261.78 1798.61L2262.22 1798.17ZM2767.63 1477.07C2667.78 1611.22 2555.61 1735.71 2433.33 1849.63C2445.21 1880.42 2453.13 1912.09 2457.08 1945.08C2463.24 1999.63 2458.4 2051.09 2444.77 2094.64C2534.94 2007.98 2636.55 1891.86 2744.32 1738.35C2750.47 1711.07 2770.27 1612.54 2768.07 1477.07H2767.63ZM384.882 1883.5C349.693 1883.5 321.101 1912.09 321.101 1947.28C321.101 1982.47 349.693 2011.06 384.882 2011.06C420.071 2011.06 448.662 1982.47 448.662 1947.28C448.662 1912.09 420.071 1883.5 384.882 1883.5ZM1554.92 1290.56C1274.29 1290.56 1074.59 1434.4 962.864 1627.5C971.221 1617.38 979.579 1607.27 988.816 1597.59C1098.78 1480.58 1253.17 1419 1434.84 1419H1444.08C1755.06 1422.52 2017.22 1613.86 2103.87 1874.26C2118.83 1788.05 2165.45 1722.51 2228.79 1704.92C2192.73 1633.66 2145.66 1568.12 2088.92 1510.94C1948.6 1369.3 1759.02 1291.44 1554.48 1290.56H1554.92ZM2109.15 1111.1C2079.24 1131.33 2007.54 1184.12 1908.13 1276.05C1924.85 1283.53 1941.12 1291 1956.96 1299.36C2000.07 1259.77 2044.93 1222.38 2091.56 1187.63C2102.99 1179.28 2117.07 1176.64 2130.71 1179.72C2345.8 1231.62 2421.46 1276.93 2494.91 1320.47C2507.23 1327.95 2519.55 1335.43 2532.3 1342.47C2550.78 1353.02 2560.01 1374.14 2554.3 1394.81C2543.3 1435.28 2435.97 1542.17 2311.93 1652.13C2325.13 1676.32 2337 1701.4 2347.56 1726.91C2364.27 1737.91 2379.67 1751.1 2392.42 1766.5C2576.29 1594.95 2699.01 1431.32 2749.16 1359.18C2660.3 1306.4 2425.41 1180.16 2108.27 1111.1H2109.15ZM2125.87 1270.77C2102.55 1288.8 2072.2 1313.88 2036.13 1346.43C2080.12 1376.78 2121.03 1411.09 2158.42 1448.91C2196.24 1487.18 2230.11 1528.97 2260.03 1573.84C2337.88 1502.58 2406.06 1436.16 2440.37 1396.13C2373.51 1355.66 2307.97 1316.96 2125.87 1270.77ZM452.181 1135.73C439.865 1135.73 429.748 1145.85 429.748 1158.16C429.308 1250.1 356.291 1326.19 261.28 1331.47C259.08 1331.47 256.441 1331.91 253.802 1331.91C241.486 1331.91 231.369 1342.03 231.369 1354.34C231.369 1366.66 241.486 1376.78 253.802 1376.78C256.881 1376.78 260.4 1377.22 263.479 1377.22C355.851 1382.5 428.428 1458.15 429.308 1550.52C429.308 1562.84 439.425 1572.96 451.741 1572.96C464.057 1572.96 474.174 1562.84 474.174 1550.52C475.494 1458.15 548.072 1382.5 640.883 1377.22C643.962 1377.22 647.041 1376.78 650.56 1376.78C662.876 1376.78 672.993 1366.66 672.993 1354.34C672.993 1342.03 662.876 1331.91 650.56 1331.91C647.921 1331.91 645.282 1331.91 640.883 1331.03C548.511 1325.75 475.494 1250.1 474.614 1157.72C474.614 1145.41 464.497 1135.29 452.181 1135.29V1135.73ZM907.001 1046C893.365 1046 880.169 1051.28 870.492 1060.95C860.815 1070.63 855.537 1083.83 855.537 1097.46C855.537 1126.05 878.85 1148.93 907.001 1148.93C935.592 1148.93 958.465 1125.61 958.465 1097.46C958.465 1068.87 935.153 1046 907.001 1046ZM2778.19 803.633C2737.28 803.633 2692.41 836.623 2666.46 885.888C2648.87 918.878 2626.43 986.177 2615.44 1117.7C2674.82 1078.11 2745.2 1057 2817.33 1057.44C2882.43 1057 2946.65 1075.03 3001.64 1108.9L2999.44 1103.18C2960.73 989.696 2920.26 872.252 2822.17 815.949C2808.98 808.032 2794.02 803.633 2778.19 803.633ZM2298.29 803.633C2276.74 803.633 2199.32 818.588 2113.99 1009.49C2113.55 1010.37 2113.11 1011.69 2112.23 1012.57C2212.96 1034.56 2311.93 1064.03 2408.7 1100.1C2407.82 1036.32 2399.9 972.541 2385.83 910.52C2370.43 844.54 2337 803.633 2298.29 803.633ZM1320.03 617.13C1254.49 617.13 1200.83 670.354 1200.83 736.334C1200.83 801.874 1254.05 855.097 1319.59 855.097C1385.13 855.097 1438.36 801.874 1438.36 736.334C1438.36 670.794 1385.13 617.57 1319.59 617.13H1320.03ZM784.719 648.801C745.571 648.801 713.901 680.471 713.901 719.619C713.901 758.767 745.571 790.437 784.719 790.437C823.867 790.437 855.537 758.767 855.537 719.619C855.537 680.471 823.867 648.801 784.719 648.801ZM2087.6 493.968C2055.49 493.968 2029.1 519.92 2029.1 552.47C2029.1 576.223 2043.17 597.336 2065.17 606.574C2087.16 615.811 2112.23 610.532 2128.95 593.817C2145.66 577.103 2150.5 552.03 2141.7 530.037C2132.9 508.044 2111.35 493.968 2087.6 493.968ZM1618.26 231.369C1610.35 231.369 1603.31 237.967 1603.31 245.884C1602.43 309.225 1553.16 361.129 1490.26 363.768C1488.5 363.768 1487.18 363.768 1485.42 363.768C1477.07 363.768 1470.47 370.806 1470.47 379.163C1470.47 387.521 1477.07 394.559 1485.42 394.559C1487.62 394.559 1489.82 394.559 1492.02 394.559C1554.04 398.078 1602.87 449.542 1603.31 512.442C1603.31 520.8 1610.35 526.958 1618.26 526.958C1626.18 526.958 1633.22 520.36 1633.22 512.442C1634.1 449.542 1682.48 398.078 1744.94 394.559C1747.14 394.559 1749.34 394.559 1751.54 394.559C1759.9 394.559 1766.5 387.521 1766.5 379.163C1766.5 370.806 1759.9 363.768 1751.54 363.768C1749.78 363.768 1748.46 363.768 1744.94 363.328C1682.92 359.809 1634.1 308.345 1633.22 245.445C1633.22 237.087 1626.18 230.929 1618.26 230.929V231.369Z" fill="black" style="fill:black;fill-opacity:1;"/>
</svg>
